<svg xmlns="http://www.w3.org/2000/svg" width="28" height="28" viewBox="0 0 28 28" fill="none">
    <path d="M20.1833 18.4333C20.65 18.9 20.65 19.6 20.1833 19.95C19.95 20.1833 19.7167 20.3 19.3667 20.3C19.0167 20.3 18.7833 20.1833 18.55 19.95L13.7667 15.1667L8.98333 19.95C8.51667 20.4167 7.81667 20.4167 7.46667 19.95C7 19.4833 7 18.7833 7.46667 18.4333L12.25 13.65L7.35 8.86667C6.88333 8.4 6.88333 7.7 7.35 7.35C7.81667 6.88333 8.51667 6.88333 8.86667 7.35L13.65 12.1333L18.4333 7.35C18.9 6.88333 19.6 6.88333 19.95 7.35C20.4167 7.81667 20.4167 8.51667 19.95 8.86667L15.2833 13.65L20.1833 18.4333Z" fill="#3A3A5F"/>
</svg>