<svg xmlns="http://www.w3.org/2000/svg" width="16" height="16" viewBox="0 0 16 16" fill="none">
    <path d="M12.6163 6.00016C12.6163 6.20016 12.5497 6.3335 12.4163 6.46683L8.41634 10.4668C8.28301 10.5335 8.14967 10.6668 7.94967 10.6668C7.74967 10.6668 7.61634 10.6002 7.48301 10.4668L3.48301 6.46683C3.28301 6.20016 3.28301 5.80016 3.48301 5.5335C3.68301 5.26683 4.14967 5.26683 4.34967 5.5335L7.88301 9.06683L11.4163 5.5335C11.6163 5.46683 11.8163 5.3335 11.9497 5.3335C12.083 5.3335 12.283 5.40016 12.4163 5.5335C12.5497 5.66683 12.6163 5.86683 12.6163 6.00016Z" fill="#3A3A5F"/>
</svg>